<?xml version="1.0" encoding="UTF-8"?><svg id="Layer_1" xmlns="http://www.w3.org/2000/svg" viewBox="0 0 542.07 198.41"><defs><style>.cls-1{fill:#284524;}</style></defs><path class="cls-1" d="M404.38,107.45l-6.94-13.32c-.24-.46-3.09-.6-3.09-.08l-.08,13.33-8.15.16-.02-38.61,16.26.5c5.23.16,8.9,4.75,9.65,8.97.93,5.27-1.34,10.26-6.75,12.55l9.54,16.54-10.42-.04ZM401.53,84.41c2.57-1.24,2.48-6.79.3-7.08l-7.54-1,.06,9.64c2.41-.19,5.01-.52,7.18-1.57Z"/><path class="cls-1" d="M467.87,108.32l-.05-20.04c0-1.4-2.81-3.61-4.38-3.37-4.08.62-4.81,3.17-5.32,6.67l-2.42,16.62-7.39-.46v-41.99s8.9-.03,8.9-.03l.12,14.43c4.64-2.32,8.84-3.89,13.64-1.92,2.97,1.22,5.75,5.57,5.79,8.9l.22,20.07c-2.93.75-5.47,1-9.11,1.13Z"/><path class="cls-1" d="M429.62,100.73l11.18-1.31,1.7,6.76-11.03,2.33c-9.15,1.93-15.77-6.18-15.89-14.9-.09-6.41,2.28-11.87,7.6-14.73,4.87-2.62,11.92-2.76,16.32,1.6,3.72,3.7,4.81,9.29,4.53,14.82l-19.34.47c.32,1.18,3.34,5.14,4.93,4.96ZM435.26,88.25c-1.92-4.54-4.21-4.11-6.51-4.04-1.34.04-2.66,1.32-4.04,4.04h10.55Z"/><path class="cls-1" d="M434.23,145.04l5.63.08,3.6.17c1,.05,2.08-2.77,2.19-3.92-4.62,1.11-7.81.98-10.83-2.62-1.29-1.54-1.72-5.77-1.11-7.92.53-1.88,3.34-5.18,5.35-5.14l10.94.21.05,15.44c0,1.65-1.51,5.41-2.77,6.41-2.9,2.29-10.19,3.53-13.05-2.72ZM439.03,137.69c2.62.23,4.64.27,5.4-.24,1.96-1.3,2.13-6.59-.67-8.12-1.02-.56-4.31-.12-4.95.84-1.04,1.57-1.06,6.76.21,7.52Z"/><path class="cls-1" d="M378.79,138.29l-1.19,3.23c-.27.75-3.18.11-3.19-.69-.02-1.33-.05-3.33-.73-3.36l-3.47-.18c-2.64-.14-4.2-.53-7.57-1.92l8.69-13.01c.77-1.16,3.02-2.6,4.29-2.54s3.43,2.47,3.45,3.77l.13,8.76,3.18,3.08-3.6,2.86ZM373.24,132.36c1.29-.1,1.11-4.01.16-5.74l-4.55,6.07,4.39-.32Z"/><path class="cls-1" d="M276.41,142.3c-3.35.24-7.1-2.42-6.35-6.21s6.06-3.3,10.56-4.88c.46-.16-1.02-1.92-1.5-1.91l-7.8.12c.04-2.4,1.27-3.55,3.89-4.07,2.33-.47,7.2-.29,8.2,1.9,2.86,6.21,2.47,14.38-.26,14.58l-6.74.48ZM281.52,135.65c-3.16-.61-4.74-.43-7.47,1.22,1.11.93,3.31,1.98,4.34,1.56.86-.35,1.97-1.49,3.14-2.78Z"/><path class="cls-1" d="M424.9,138.52l3.5-.61c.56-.1.78,2.26.36,2.63-2.4,2.14-9.15,3.31-12.12-.26-3.22-3.88-3.37-10.15.84-13.63,2.21-1.82,6.45-1.6,9.08,0s3.93,4.72,3.45,8.48l-10.94.85c1.18,1.78,3.86,2.89,5.83,2.54ZM419.33,129.61v2h6v-2h-6Z"/><path class="cls-1" d="M407.82,138.28l3.1.25c.77.06.11,3.4-.65,3.42l-10.6.26c-1.41.04-3.76-2.73-3.75-4.24l.15-17.53,3.18-.28c.69-.06,1.82,2,1.82,2.79l.07,14.8,6.68.53Z"/><path class="cls-1" d="M294.43,133.02l-.38,8.35c-.04.82-3.61.69-3.62-.24l-.16-14.78,8.89-.93c.58-.06,1.71,2.39,1.18,2.62l-2.56,1.11c-1.05.45-3.28,2.62-3.34,3.88Z"/><path class="cls-1" d="M308.32,140.09c0,1.2-3.13,1.71-4.13,1.08l.05-15.27,3.09.07c.61.01.93,1.9.93,2.71l.06,11.41Z"/><circle class="cls-1" cx="306.03" cy="121.42" r="2.22"/><path class="cls-1" d="M223.03,147.29c-16.5-15.63-17.27-35.97-17.17-56.91l-15.63,4.23-9.1,23.92-2.73,6.16c-.27.61-1.83,1.41-2.51,1.53s-1.46-1.63-1.8-2.67l9.05-27.94c-11.77.88-17.51-6.29-15.37-7.2,3.76-1.6,9.07,4.12,18.01,1.77,4.06-10.47,8.18-19.73,14.21-28.96,3.7-5.66,10.42-9.3,13.79-6.71.94.72,2.21,3.29,2.09,4.48l-2.35,24.02,5.59.94c.97.16,2.52,2.22,2.34,3.17s-2,2.42-3.08,2.52l-5.79.51.34,15.54c.19,8.91,1.37,17.94,5.43,25.95,5.43,10.71,15.4,18.2,27.21,20.95,10.06,2.34,20.18,1.62,20.61,4.57.64,4.29-14.79,2.06-24.76-.57-6.76-1.78-13.05-4.22-18.38-9.27ZM203.52,85.19c1.28-.31,3.48-2.77,3.58-4.06l1.4-19.11c-7.04,7.97-10.89,16.1-14.95,25.62l9.98-2.45Z"/><path class="cls-1" d="M269.55,106.41c6.87,6.76,12.22-5.25,19.85-8.1,3.55,3.66-6.57,13.38-14.1,15.12-8.53,1.97-10.74-6.69-18.87-9.39l-4.09,6.37c-.42.66-3.47.39-4.07-.2s-1.1-2.65-.8-3.7l7.15-25.66,10.85-36.14c2.07-6.9,6.59-14.43,11.05-13.12,4.78,1.4,5.94,8.27,3.83,13.92l-3.28,8.8-6.04,11.96-8.86,17.54c2.37-1.96,7.22-4.81,9.11-2.26,3.19,4.32-.59,10.12-3.41,13.35l-4.63,5.3,6.31,6.21ZM275.25,40.32l-2.11,1.92c-.74.67-1.28,1.52-1.56,2.47l-4.31,14.2c4.71-5.64,9.03-17.61,7.99-18.59Z"/><path class="cls-1" d="M541.99,95.01c-.55,8.47-6.79,14.4-14.68,13.7l-12.96-1.15-.24-24.48.72-17.3,8.39.42.18,13.87c4.79-2.81,10.6-3.98,14.54,0,3.51,3.54,4.4,9.5,4.05,14.94ZM531.26,99.28c3.11-3.75,2.48-9.99.41-12.81-.91-1.23-4.72-.98-5.83-.11-.94.75-2.52,3.04-2.52,4.4l.02,9.92c1.98.82,6.56.24,7.91-1.39Z"/><path class="cls-1" d="M299.67,106.72l-12.52-38.25,9.93.05c2.85,9.43,5.3,17.23,8.83,25.85l8.26-25.06c2.77-1.19,5.85-1.28,9.4-.68l-9.31,27.88-3.48,10.08-11.11.14Z"/><path class="cls-1" d="M500.98,108.27l-2.25-2.31c-2.6,1.43-5.91,2.72-8.75,2.68-6.59-.1-10.28-10.24-7.98-20.4,2.42-10.67,14.44-12.86,26.28-9.46l-.5,29.31-6.8.19ZM498.51,96.21l.9-10.61c-2.78-.81-7.12-.6-8.23,1.86-1.53,3.36-1.75,9.35,0,12.35,1.48,2.54,7.1-.79,7.34-3.6Z"/><path class="cls-1" d="M332.16,94.91c.25,5.94,7.58,6.53,15.8,3.69l1.35,6.84c-7.69,3.7-16.6,4.1-22.75-2.17-5.6-5.7-5.63-15.7-.41-21.89s15.7-6.91,21.15-.77c3.03,3.42,3.49,9.28,3.98,14.03l-19.11.26ZM342.42,88.19c-.84-2.48-2.92-4.51-4.69-4.6-2.68-.14-5.11,1.06-6.06,4.72l10.75-.11Z"/><path class="cls-1" d="M373.61,107l-9.59.85c-2.07.18-5.75-2.93-5.85-4.97l-.87-17.61-4.13-1.03.45-6.64,3.16-.98c.6-.19.67-1.99.7-3.15.02-.94,1.76-2.96,2.73-2.99l6.69-.2.39,6.66,6.74.35-.24,7.31-6.8.51.21,14.47c.72.27,2.84.63,3.98.72,2.34.19,4.2,4.62,2.42,6.71Z"/><path class="cls-1" d="M249.28,81.64c-.61,4.15-13.45.82-17.98,14.07l-4.3,12.57c-.37,1.08-2.11,2.52-3.07,2.5-3.16-.08-3.97-4.96-2.16-10.95l6.4-21.27c.25-.83,1.48-2.15,2.1-2.43.77-.35,3.12.31,3.26,1.13l.87,5.13c7.64-4.62,15.34-3.8,14.89-.74Z"/><path class="cls-1" d="M335.47,145.01l6.86-.29c.61-.03,2.17-.69,2.7-.99s-.18-2.12-.73-2.04c-1.99.33-6.16.1-7.78-.88-2-1.2-3.17-4.52-3.37-7.13-.36-4.7,2.87-8.61,7.6-8.29l8.31.56c1.08,6.08,2,13.23-.3,19.14s-10.69,5.05-13.71,2.58c-.28-.23.06-2.65.43-2.66ZM345.48,137.17l.11-6.99-7.66-.95c-.42,4.02-.42,4.66.07,8.9l7.48-.96Z"/><path class="cls-1" d="M253.49,126.1c-2.55,3.37-1.87,7.75.5,10.22,2.23,2.33,5.91,2.61,9.27,1.46l2.18-.75c.6-.21,1.95,2.02,1.47,2.5-3.5,3.53-11.54,4.4-15.73.19s-5.11-10.87-1.45-15.84c3.98-5.41,12.75-6.15,17.49-.81-2.39,3.56-9.64-2.37-13.73,3.02Z"/><path class="cls-1" d="M324.85,142.34l-.66-9.64c-.09-1.25-1.29-3.84-2.39-3.85-1.41-.02-3.27,2.22-3.48,3.55l-1.23,7.6c-.06.38-1.08,1.48-1.35,1.74-.41.41-2.34-.81-2.33-1.45l.17-14.16,10.03-.69c4.97-.34,6.17,6.93,5.48,14.7-.08.85-2.89,2-4.22,2.2Z"/><path class="cls-1" d="M462.47,132.2c1.91.89,4.18,1.94,4.72,3.18.63,1.46-.6,5.17-1.96,5.97-3.69,2.16-8.09,1.62-11.02-1.52l7.5-2.77-3.38-1.79c-1.16-.62-3.09-2.4-3.55-3.6s.44-4.34,1.54-5.06c2.87-1.89,7.34-1.61,10.31-.48l.23,2.73-9.11,1.13,4.72,2.19Z"/><path class="cls-1" d="M146.65,179.94l20.03,4.81c.76.18,2.22,1.95,2.41,2.6,2.27,7.63-45.1,10.01-59.61,10.51-19.33.66-38.18.78-57.48.03-14.18-.55-48.93-3.11-51.9-9.82-1.56-3.53,13.78-6.18,23.13-8.13-8.55-11.39-7.83-25.39,1.35-35.08,5.34-5.64,11.63-9.42,20.03-10.56,1.27-5.88,0-11.86-2.45-17.42-5.17-11.79-8.48-18.17-6.93-32.22l3.21-29.03c-7.68-.93-12.73-5.87-15.65-12.44-5.57-12.52-1.28-26.55,11.06-33.1,14.35-7.62,37.6-15.52,49.21-5.05,2.48,2.24,4.23,7.08,5.6,10.21l21.5,12.51c.53.31,1.22.84,1.33.52l.7-1.98c.37-1.06,1.21-2.8,1.95-3.42.88-.74,3.66.53,4.43,1.4l7.94,9.05,11.96.09,8.73-10c.59-.67,2.52-1.56,3.42-1.55,2.97.02,3.36,10.01,1.95,18.26,3.81,9,3.92,18.22-1.01,26.99-3.37,5.99,7.85,18.54,1.97,43.73l-3.66,15.72c11.96,11.54,19.54,29.98,8.62,41.2l-11.84,12.17ZM77.59,134.74l3.94,1.76c.5.22.94,2.05.42,2.22l-1.93.63-6.28,1.07-.04,2.88,9.85-.75c.8-2.09,1.76-6.35,1.77-8.69l.04-11.85,4.16-1.16c2.03-14.41,10.08-27.07,18.72-38.75-.25-.58-2.62-2.43-3.82-2.71l-15.33-3.59c-2.35-.55-6.54-.49-9.11-.82l-5.33-7.73c-3.67-5.33-3.47-13.29,1.53-17.62,3.15-2.73,6.59-3.88,10.39-4.76l-7.51-3.35c-1.25-.56-2.62-3-2.69-5.17,8.26.72,12.3,8.72,24.09,2.9l-2.41-2.23c-3.02-2.79-4.31-5.23-3.42-9.22l.57-2.54c.27-1.2-8.98-2.47-12.58-13.07-1.52-4.48-6.07-8.9-11.57-8.26-17.3,2.01-45.85,11.01-44.4,28.63.41,4.98,1.94,12.03,4.75,15.77,4.16,5.53,12.58,2.91,16.28-1.17s4.05-8.85.33-13.41c-3.91-4.79-6.05-13.92-3.99-18.59,2.69-6.11,3.85,9.08,4.82,10.96l5.83,11.31c2.83,5.5-3.43,12.76-10.13,17.37-2.89,4.83-2.9,12.06-3.58,17.59l-1.1,9.04c-1.34,11.01-.14,20.85,4.93,30.7,3.66,7.1,4.71,15.36,4.83,22.9l2.98,3.98c-5,.73-6.72.25-9.95,3.79,4.81.38,7.51.36,11.9,0,1.17-5.7,2.41-13.22.97-17.69-.35-1.07-2.43-3.87-2.21-4.42,5.66-.94,11.41,3.63,20.03,3.35l-.54-5.95,3.06.15c2.27,5.11,2.81,10.67,1.73,16.49ZM105.04,28.95l-.33-1.02c-.31-.22-.69-.33-1.07-.31l-2.35.12c-.4.02-.77.2-1.04.49l-.31.91,5.11-.17ZM126.6,140.46l3.49-21.59c.11-.66,2.48-2.04,2.75-1.46.19.39.81,1.96.82,2.46l.18,14.67c.09,7.35,4.22,12.24,8.07,11.35l2.8-.65c.51-.12-.21-2.35-.7-2.54l-5.48-2.08,2.9-19.08c.37-2.46,1.32-4.23,3.41-4.99l1.1,6.69c2.56-7.98,4.58-15.86,5.34-24.63,1.38-15.84-7.78-25.75-3.13-34.13,3.48-6.25,4.27-12.54,1.45-19.34s.54-10.59-.56-17.17l-8.08,8.26c-1.38,1.41-5.86.5-7.62.6l-8.28.48c-3.25-3.56-5.23-5.64-9.27-9.53l.79,9.75c.1,1.27.66,4.19-.04,5.45-2.93,5.34-3.58,12.42-.88,18.34,4.88,10.74-1.72,18.91-8.11,28.6-12.86,19.48-22.55,37.12-3.98,55.66l11.52-.07c1.04,0-.28-3.58-1.21-3.62l-8.3-.4,5.01-10.77c1.92-4.12,2.44-14.37,4.26-12.36l1.71,1.89c.06,0,1.67.1,1.62.09l.67-2.68c.1-.41,2.78-.02,2.8.41l.43,11.41.36,15.98,10.95.25c-.22-1.06-1.13-2.95-1.82-3.23l-4.96-2.01ZM110.72,77.05c3.48-5.19,3.16-10.02,1.11-14.83-5.36-12.58,3.48-19.9-.27-29.5-4.08,6.61-7.89,11-14.66,13.56-12.94,4.9-20.97,2.95-20.03,13.39.49,5.44,2.94,9.69,8.53,11.08l25.32,6.29ZM118.42,139.92l-.57-17.34-6.01,15.45,6.58,1.89ZM72.63,136.8l.88-8.52-13.87-2.18.49,9.23,12.49,1.47ZM154.75,165.76c10.01-8.65,3.04-23.6-5.83-34.4-4.42,5.23,1.64,10.46,3.95,23.66l1.88,10.74ZM90.52,137.47c.86-.27.81-4.02-.07-3.92-1.55.2-1.49,4.18.07,3.92ZM67.92,143.84l-1.06-3.86-6.59-.66c-1.02-.1-1.88,4.16-1.62,4.51h9.27ZM144.02,156.19c1.15-.43,3.63-1.18,3.52-2.24l-.47-4.41-50.73-.06-6.92-.27c-.36-.01-1.63-.17-1.63-.53v-2.12s9.8-1.43,9.8-1.43c-2.48-2.64-10.23-1.6-13.76,2.11l-31.51.36c-5.61.06-12.05.03-16.69-.91l-2.39-.49c-.41-.08-.23-1.87.18-1.93l2.39-.36c.95-.14,1.96-1.7,2.37-3.58-3.52,1.35-6.04,2.92-8.76,5.34-10.61,9.46-11.12,25.55.22,34.79,15.69,12.79,28.34,7.03,45.83,3.44,21.89-4.49,36.11,3.5,46.83,3.1,7.53-.28,13.96-3.43,19.35-8.18-6.86-1-14.76,3.38-20.56-2.03-3.64-3.4-2.92-11.25,1.65-13.7,2.75-1.47,7.45-1.66,10.19-2.7l11.1-4.2ZM150.93,160.53l-2.51-1.82.31,2.97c.05.44,1.5-.59,2.2-1.15ZM145.1,173.65c2.27-2.68,2.57-5.39,1.79-7.95-.65-2.15-3.11-4.35-5.17-4.64l3.38,12.59ZM140.98,174.57l-2.12-10.79-11.22,1.16c-2.9.3-4.94,3.86-4.73,6.23.25,2.79,3.25,5.67,6.19,5.22l11.88-1.82Z"/><path class="cls-1" d="M65.62,14.41c-2.77.75-5.7.93-8.7-.44,3.6-4.99,8.32-6.76,14.56-4.48l-4.75,4.62.91.98c3.81-1.65,9.72,1.03,9.3,5.55-.12,1.26-3.83.31-4.61-1.01-2.76-4.67-7,3.44-9.97,1.06-.69-2.27,2.27-5.21,4.01-5.44l-.77-.84Z"/><path class="cls-1" d="M140.01,54.53l-.28,2.08c-.09.69-2.12,1.41-2.84,1.41l-6.17.06c-.47,0-1.91-.11-1.99-.52l-.54-2.89,3.3,2.09.25-4.31,4.63.2-.89,4.01,4.53-2.13Z"/><path class="cls-1" d="M130.39,48.33l-8.17,2.04c.55.96-.41-.71-1.13-1.97l4.89-2.35c1.07-.52,3.77,1.49,4.41,2.28Z"/><path class="cls-1" d="M145.47,50.44l-7.95-2.37c.78-1.46,4.83-2.46,6.32-1.45l2.43,1.64c.5.33-.69,2.72-.8,2.19Z"/></svg>